<svg width="32" height="32" viewBox="0 0 32 32" fill="none" xmlns="http://www.w3.org/2000/svg">
<g clip-path="url(#clip0_1_74)">
<path d="M5.43855 12.0809C8.27663 11.0064 11.1268 9.96375 13.9884 8.95361C16.8665 7.93764 19.7561 6.95425 22.6563 6.00312C23.4802 5.73292 24.3049 5.46532 25.1305 5.20032C25.8727 4.96209 26.6139 4.70305 27.3901 4.60141L27.1655 4.6278C27.7057 4.56515 28.2395 4.58958 28.7676 4.72353L29.9242 2.70214C29.3755 3.15214 28.8143 3.58661 28.2403 4.0039C28.1762 4.05049 27.9118 4.24005 28.1696 4.05579C28.4365 3.86499 28.1522 4.06736 28.0972 4.10593C27.9509 4.20859 27.8038 4.31016 27.656 4.41068C27.3593 4.61242 27.0597 4.80978 26.7573 5.00286C26.455 5.19594 26.1468 5.38645 25.8375 5.57169C25.6823 5.66467 25.5264 5.75652 25.3698 5.84726C25.3026 5.88622 25.2352 5.92481 25.1678 5.96355C24.965 6.08017 25.282 5.9006 25.2923 5.89325C25.2509 5.92265 25.2009 5.94465 25.1565 5.96943C24.5182 6.32586 23.8697 6.66405 23.2125 6.98435C22.4517 7.35513 21.679 7.70079 20.8969 8.02414L19.5672 10.348C20.1865 10.0821 20.8059 9.8165 21.4284 9.55822C21.7354 9.4309 22.043 9.30536 22.3517 9.18242C22.4945 9.12554 22.6377 9.06954 22.7809 9.01354C22.9281 8.95597 22.5643 9.09623 22.7122 9.04025C22.7482 9.02663 22.7841 9.01272 22.8201 8.99902C22.9042 8.96703 22.9884 8.9353 23.0726 8.90382C24.3527 8.42549 25.6568 8.00723 26.9894 7.70173C27.776 7.52141 28.5712 7.38199 29.3724 7.28565L29.1478 7.31204C29.3118 7.29297 29.4759 7.27552 29.6403 7.25968L29.8163 6.22992C29.7877 6.26704 29.7588 6.30391 29.7296 6.34056C29.6238 6.47186 29.6719 6.4143 29.8739 6.16785C29.8282 6.2211 29.7833 6.275 29.7371 6.32787C29.6292 6.45135 29.5157 6.56897 29.4043 6.68919C29.9007 6.15348 29.473 6.61648 29.3397 6.74005C29.2793 6.79603 29.2182 6.85128 29.1566 6.90592C28.8809 7.15048 29.5183 6.60446 29.2807 6.80086C29.1528 6.90662 29.0246 7.01169 28.8934 7.11347C28.8369 7.15724 28.7802 7.2006 28.7231 7.24353C28.6789 7.27676 28.5088 7.36403 28.4923 7.41349L28.7298 7.24379C28.6907 7.27151 28.6514 7.29907 28.6119 7.32644C28.5428 7.37448 28.4732 7.42192 28.4033 7.46891C28.2629 7.56334 28.121 7.65569 27.9781 7.74622C27.6999 7.92241 27.417 8.09076 27.1319 8.25558C27.0018 8.32997 27.0469 8.30454 27.2674 8.17931C27.2246 8.20346 27.1817 8.22749 27.1388 8.25141C27.0743 8.28736 27.0097 8.32306 26.9449 8.35855C26.7935 8.44159 26.6414 8.52342 26.4888 8.60434C25.8764 8.92904 25.2561 9.23837 24.6355 9.54707C24.2536 9.73707 23.8989 10.0095 23.5884 10.2991C23.2939 10.5737 22.9547 10.9281 22.7652 11.2912C22.6802 11.454 22.4874 11.7699 22.6482 11.9423C22.8068 12.1123 23.1592 11.9342 23.3059 11.871C24.1052 11.5263 24.909 11.1921 25.7174 10.8694C25.9113 10.792 26.1054 10.7152 26.2997 10.6391C26.397 10.601 26.4944 10.5632 26.5918 10.5252C26.7402 10.4674 26.3783 10.6073 26.5271 10.5503C26.5881 10.5269 26.6491 10.5034 26.7102 10.48C27.1263 10.3208 27.5434 10.1644 27.9617 10.0109C29.6117 9.40527 31.2781 8.84439 32.9578 8.327C36.4021 7.26607 39.9021 6.38828 43.4362 5.6829C45.467 5.27758 47.509 4.93013 49.5588 4.63615L49.1309 4.44457C49.1491 4.59609 49.1463 4.73847 49.1182 4.8885L49.1602 4.66623C49.1461 4.72491 49.1266 4.78049 49.1099 4.83826C49.0475 5.05407 49.2497 4.58141 49.1371 4.77626C49.3513 4.40557 49.3102 4.5239 49.2454 4.61207C49.084 4.83147 49.5486 4.25818 49.3646 4.46216L49.6145 4.20736C49.4812 4.32977 49.5559 4.26716 49.8385 4.01957C49.8053 4.04589 49.773 4.07329 49.7396 4.09937L49.6889 4.1382C49.5551 4.23725 49.6215 4.1903 49.8881 3.99736C49.8173 4.04366 49.7481 4.09258 49.677 4.13869C49.1757 4.46391 48.6661 4.77706 48.1558 5.0877C47.6378 5.4029 47.1166 5.71265 46.5925 6.01745C46.3417 6.1633 46.0902 6.30801 45.8382 6.45165C45.7781 6.48588 45.7177 6.51967 45.6578 6.5542C46.0438 6.33188 45.7783 6.48586 45.6962 6.5321C45.5514 6.61363 45.4064 6.69483 45.2612 6.77571C43.0944 7.98289 40.888 9.11774 38.6661 10.2199C34.1061 12.4819 29.5013 14.6552 24.914 16.861C22.2759 18.1296 19.6377 19.3981 16.9996 20.6667C16.619 20.8497 16.259 21.1328 15.9524 21.4187C15.6579 21.6933 15.3187 22.0477 15.1293 22.4108C15.0443 22.5737 14.8515 22.8895 15.0122 23.0619C15.1682 23.2292 15.5274 23.0591 15.6699 22.9906C20.5769 20.6311 25.4838 18.2715 30.3907 15.912C35.0933 13.6507 39.8173 11.4175 44.3665 8.85602C45.7011 8.10455 47.0242 7.33323 48.3231 6.52123C49.1322 6.01542 49.9186 5.49602 50.5928 4.81267C51.2311 4.16573 52.0025 3.26778 51.8847 2.28415C51.855 2.03549 51.6474 2.06524 51.4568 2.09257C47.8178 2.61446 44.2032 3.30694 40.6333 4.18554C37.152 5.04233 33.7133 6.07445 30.341 7.29209C28.4174 7.98662 26.5135 8.73725 24.6355 9.54709L23.3059 11.871C24.7276 11.1638 26.1533 10.4473 27.4868 9.58153C29.1229 8.51936 30.6123 7.23707 31.8115 5.69309C31.9698 5.48932 32.1217 5.24678 32.1698 4.99245C32.1921 4.87448 32.185 4.64432 31.9875 4.66334C30.4445 4.81199 28.9266 5.10374 27.4379 5.53534C25.9779 5.95862 24.554 6.49944 23.1476 7.07395C22.3937 7.38195 21.6451 7.70287 20.8968 8.02421C20.5223 8.18502 20.1423 8.50329 19.8497 8.77619C19.5552 9.05082 19.216 9.4052 19.0265 9.76831C18.9415 9.93118 18.7487 10.247 18.9095 10.4194C19.069 10.5905 19.419 10.4093 19.5672 10.3481C22.4209 9.16833 25.1558 7.67361 27.672 5.88218C28.4519 5.32697 29.2179 4.75576 29.9582 4.14858C30.4075 3.78011 30.8623 3.35859 31.1467 2.84323C31.2626 2.63324 31.4767 2.21898 31.1148 2.12719C29.5553 1.73155 28.0016 2.34267 26.5328 2.81617C24.9529 3.32553 23.376 3.84439 21.8023 4.37283C18.6969 5.41564 15.604 6.49571 12.5247 7.61341C10.7909 8.24275 9.06148 8.88422 7.33647 9.53734C6.56881 9.82798 5.86508 10.4075 5.38986 11.0776C5.23719 11.2929 4.97838 11.609 5.01055 11.8894C5.03531 12.105 5.25044 12.1522 5.43846 12.081L5.43855 12.0809Z" fill="#E23929"/>
<path d="M46.7615 19.7319C43.738 20.8843 40.7006 22.0004 37.6502 23.0797C34.5811 24.1656 31.4988 25.2145 28.4046 26.2268C27.5618 26.5025 26.7213 26.7973 25.8679 27.0386C25.6737 27.0934 25.478 27.1433 25.2803 27.184C25.193 27.202 25.1041 27.2138 25.017 27.2325C24.8837 27.2611 25.1572 27.22 25.0208 27.2333C24.9693 27.2384 24.9181 27.2447 24.8666 27.2491C24.6569 27.2673 24.4461 27.2717 24.2359 27.2596C24.1956 27.2573 24.1555 27.2538 24.1152 27.251C23.864 27.2339 24.2062 27.2749 24.0627 27.2466C23.9376 27.222 23.8132 27.199 23.6894 27.1678L24.0756 28.6303C24.3489 28.4051 24.6253 28.1839 24.9047 27.9663C24.7741 28.068 24.9583 27.9255 24.999 27.8945C25.0697 27.8407 25.1406 27.7871 25.2117 27.7338C25.3541 27.627 25.4972 27.5213 25.6412 27.4167C26.2201 26.9957 26.8116 26.5919 27.4141 26.2053C28.6376 25.4202 29.9068 24.7068 31.2109 24.0645C31.5889 23.8783 31.97 23.6981 32.3537 23.5238C32.5346 23.4417 32.716 23.361 32.898 23.2815C32.9953 23.239 33.0928 23.1969 33.1904 23.1552C33.227 23.1395 33.2637 23.1239 33.3004 23.1083C33.1327 23.1795 33.3735 23.0782 33.3859 23.073L32.7117 21.4738C32.397 21.6097 32.0822 21.7456 31.7671 21.8805C31.615 21.9456 31.4627 22.0104 31.3104 22.075C31.1552 22.1408 31.2768 22.0892 31.3082 22.076C31.2729 22.0908 31.2377 22.1056 31.2024 22.1204C31.1082 22.1599 31.0141 22.1992 30.9198 22.2384C30.2809 22.5037 29.6384 22.7608 28.99 23.0021C27.6581 23.4978 26.2993 23.926 24.9099 24.2286C24.5175 24.314 24.1229 24.3895 23.7266 24.4541C23.6197 24.4716 23.5127 24.4882 23.4057 24.504C23.3654 24.51 23.3249 24.5152 23.2847 24.5215C23.1828 24.5376 23.4018 24.5075 23.2338 24.5286C23.0157 24.5561 22.7973 24.5808 22.5786 24.6024L23.1973 26.0961C23.6138 25.5574 24.0872 25.0672 24.6021 24.6222C24.7275 24.5139 24.8551 24.4082 24.9846 24.3049C25.0218 24.2753 25.0591 24.2459 25.0965 24.2167C25.0135 24.2807 25.0111 24.2828 25.0895 24.2231C25.1471 24.1805 25.2041 24.1372 25.2619 24.0949C25.5434 23.8886 25.8322 23.6923 26.126 23.5038C27.3183 22.7389 28.5874 22.1032 29.8528 21.4702C30.2631 21.265 30.4113 20.6524 30.1667 20.2731C29.8848 19.8358 29.4205 19.7635 28.9696 19.9592C28.7799 20.0415 28.59 20.1233 28.3998 20.2044C28.3046 20.245 28.2094 20.2855 28.114 20.3257C28.2632 20.2628 28.1374 20.3158 28.1083 20.328C28.0366 20.3579 27.9649 20.388 27.8932 20.4179C27.4979 20.5827 27.1014 20.7448 26.7039 20.9041C25.8928 21.2293 25.0772 21.5434 24.2576 21.8464C22.6014 22.4587 20.9287 23.0259 19.2424 23.5493C15.8106 24.6146 12.3227 25.4978 8.80068 26.2095C6.76335 26.6212 4.71456 26.9748 2.65777 27.2744L3.76537 28.1181C3.75732 28.0521 3.75072 27.9869 3.75105 27.9203L3.75294 27.8569C3.76157 27.7574 3.75921 27.774 3.74587 27.9068C3.74258 27.9051 3.78542 27.7372 3.79575 27.7347C3.80691 27.7319 3.68646 27.9318 3.7804 27.7816C3.8119 27.7312 3.84242 27.6795 3.8735 27.6288C3.97887 27.4572 3.74498 27.7616 3.88761 27.6159C3.97546 27.5261 4.06565 27.4419 4.15825 27.357C4.31664 27.2118 4.00547 27.4614 4.18166 27.3366C4.2251 27.3058 4.26794 27.2743 4.31174 27.2439C4.4124 27.1742 4.5153 27.1079 4.61838 27.0418C4.8957 26.8641 5.17437 26.6885 5.45399 26.5144C6.50741 25.8586 7.57555 25.2267 8.65445 24.6138C10.8578 23.3621 13.1051 22.1895 15.3701 21.0539C20.0181 18.7233 24.7192 16.4969 29.4 14.2334C32.088 12.9335 34.7761 11.6336 37.4641 10.3337C37.8772 10.1339 38.0202 9.5122 37.778 9.13654C37.5047 8.71264 37.0227 8.60896 36.5808 8.82264C31.7055 11.1803 26.8301 13.538 21.9548 15.8956C17.3056 18.1439 12.635 20.3635 8.13265 22.8983C6.88291 23.6019 5.64688 24.3301 4.4309 25.0906C3.34766 25.7681 1.83073 26.6039 2.01539 28.1181C2.09024 28.7319 2.51131 29.051 3.12299 28.9619C6.77712 28.4295 10.4061 27.725 13.9897 26.833C17.4455 25.9727 20.8589 24.9395 24.2064 23.7232C26.1115 23.0309 27.9933 22.277 29.8528 21.4702L28.9695 19.9592C26.4352 21.2269 23.732 22.5664 21.9598 24.8586C21.7369 25.1469 21.6275 25.4557 21.7789 25.8145C21.903 26.1085 22.2369 26.386 22.5785 26.3523C25.5823 26.0562 28.4296 25.1447 31.208 23.9991C32.0072 23.6695 32.8013 23.3276 33.5948 22.9848C33.993 22.8128 34.1042 22.2509 33.9528 21.8922C33.8014 21.5334 33.324 21.2177 32.9206 21.3856C30.1089 22.5553 27.4203 23.9945 24.9437 25.7714C24.2239 26.2878 23.5218 26.8296 22.8381 27.3928C22.3237 27.8166 22.6269 28.7052 23.2242 28.8553C24.881 29.2717 26.442 28.7036 28.004 28.1964C29.5692 27.6882 31.1314 27.1706 32.6904 26.6436C35.8211 25.5853 38.9389 24.4892 42.0427 23.3548C43.7752 22.7216 45.5031 22.0763 47.2267 21.4193C47.6531 21.2569 47.993 20.8225 47.8378 20.343C47.7032 19.9271 47.2194 19.5574 46.7615 19.7319V19.7319Z" fill="#E23929"/>
</g>
<defs>
<clipPath id="clip0_1_74">
<rect width="32.0018" height="31.1522" rx="2" fill="white"/>
</clipPath>
</defs>
</svg>
