<svg width="104" height="56" viewBox="0 0 104 56" fill="none" xmlns="http://www.w3.org/2000/svg"><path d="M92.8393 36.7782C86.5682 39.1684 80.2685 41.4833 73.9417 43.7219C67.576 45.9742 61.1832 48.1497 54.7655 50.2493C53.0175 50.8212 51.2741 51.4326 49.5041 51.933C49.1013 52.0468 48.6954 52.1502 48.2855 52.2347C48.1043 52.272 47.92 52.2965 47.7393 52.3352C47.4628 52.3945 48.03 52.3092 47.7471 52.3369C47.6404 52.3474 47.5341 52.3605 47.4273 52.3697C46.9923 52.4074 46.5552 52.4165 46.1193 52.3914C46.0357 52.3866 45.9524 52.3793 45.8688 52.3736C45.3478 52.3382 46.0576 52.4233 45.7599 52.3645C45.5005 52.3134 45.2426 52.2656 44.9858 52.2011L45.7866 55.2344C46.3535 54.7673 46.9269 54.3085 47.5064 53.8573C47.2355 54.0682 47.6175 53.7726 47.702 53.7083C47.8486 53.5966 47.9956 53.4855 48.143 53.375C48.4384 53.1535 48.7354 52.9343 49.0339 52.7172C50.2347 51.844 51.4615 51.0065 52.7111 50.2047C55.2487 48.5763 57.8812 47.0966 60.5859 45.7644C61.3701 45.3781 62.1604 45.0044 62.9563 44.643C63.3314 44.4727 63.7076 44.3052 64.0851 44.1404C64.2869 44.0523 64.4891 43.965 64.6916 43.8784C64.7676 43.8459 64.8437 43.8135 64.9198 43.7812C64.572 43.9288 65.0713 43.7187 65.0971 43.708L63.6987 40.3909C63.046 40.6729 62.3932 40.9548 61.7395 41.2345C61.4241 41.3695 61.1083 41.5039 60.7924 41.6379C60.4704 41.7745 60.7226 41.6674 60.7877 41.64C60.7146 41.6707 60.6415 41.7015 60.5683 41.7322C60.3731 41.814 60.1777 41.8956 59.9823 41.9768C58.657 42.5272 57.3245 43.0604 55.9796 43.5609C53.2172 44.589 50.399 45.4772 47.5172 46.1047C46.7033 46.2819 45.8849 46.4385 45.0628 46.5726C44.8412 46.6087 44.6193 46.6432 44.3972 46.676C44.3136 46.6884 44.2298 46.6992 44.1464 46.7123C43.9349 46.7456 44.3892 46.6833 44.0408 46.7271C43.5884 46.784 43.1355 46.8353 42.6818 46.88L43.9651 49.9781C44.8289 48.8609 45.8107 47.8442 46.8788 46.9211C47.1388 46.6965 47.4035 46.4773 47.6721 46.2631C47.7492 46.2017 47.8265 46.1407 47.9043 46.0801C47.7321 46.2128 47.7271 46.2173 47.8896 46.0933C48.009 46.005 48.1273 45.9152 48.2471 45.8274C48.8312 45.3996 49.4301 44.9924 50.0394 44.6015C52.5124 43.0149 55.1445 41.6965 57.7692 40.3836C58.6201 39.9579 58.9275 38.6873 58.4202 37.9005C57.8355 36.9936 56.8725 36.8437 55.9372 37.2495C55.5438 37.4202 55.15 37.5899 54.7556 37.7581C54.5581 37.8423 54.3606 37.9263 54.1628 38.0098C54.4722 37.8792 54.2112 37.9892 54.1509 38.0144C54.0022 38.0766 53.8535 38.139 53.7047 38.201C52.8848 38.5428 52.0625 38.8789 51.238 39.2094C49.5558 39.884 47.8642 40.5354 46.1642 41.1639C42.7292 42.4337 39.2598 43.6103 35.7623 44.6959C28.6443 46.9053 21.4101 48.7373 14.1052 50.2135C9.87961 51.0674 5.63024 51.8007 1.36428 52.4221L3.66154 54.1721C3.64484 54.0352 3.63115 53.8999 3.63182 53.7618L3.63574 53.6303C3.65365 53.4239 3.64876 53.4584 3.62108 53.7338C3.61426 53.7302 3.70311 53.3821 3.72455 53.3767C3.74768 53.3709 3.49787 53.7856 3.6927 53.474C3.75804 53.3696 3.82134 53.2623 3.8858 53.1573C4.10435 52.8012 3.61924 53.4326 3.91508 53.1304C4.09729 52.9442 4.28433 52.7695 4.47641 52.5934C4.80492 52.2922 4.15952 52.8101 4.52495 52.5511C4.61506 52.4872 4.70392 52.4218 4.79475 52.3589C5.00353 52.2142 5.21695 52.0767 5.43076 51.9397C6.00593 51.5712 6.58391 51.2069 7.16388 50.8458C9.34876 49.4856 11.5642 48.1749 13.8019 46.9037C18.3718 44.3075 23.033 41.8755 27.7308 39.52C37.3711 34.6863 47.1217 30.0684 56.83 25.3736C62.4052 22.6774 67.9805 19.9813 73.5556 17.2852C74.4125 16.8708 74.709 15.5813 74.2067 14.8021C73.6399 13.9229 72.6402 13.7079 71.7237 14.1511C61.6118 19.0411 51.4999 23.9312 41.388 28.8212C31.7452 33.4844 22.058 38.0881 12.7197 43.3456C10.1276 44.8049 7.56396 46.3153 5.04191 47.8927C2.79517 49.2978 -0.351079 51.0315 0.0319187 54.1721C0.18717 55.4451 1.06051 56.1069 2.32918 55.9221C9.90816 54.818 17.435 53.3568 24.8676 51.5066C32.0354 49.7224 39.1151 47.5792 46.0579 45.0564C50.0093 43.6207 53.9125 42.0569 57.7691 40.3836L55.9371 37.2495C50.6808 39.8789 45.074 42.6572 41.3984 47.4116C40.9361 48.0095 40.7091 48.65 41.0231 49.394C41.2805 50.0039 41.973 50.5795 42.6816 50.5096C48.9117 49.8955 54.8173 48.0049 60.58 45.6287C62.2376 44.9452 63.8846 44.2361 65.5305 43.525C66.3564 43.1682 66.587 42.0029 66.273 41.2587C65.959 40.5146 64.9688 39.8598 64.132 40.208C58.3004 42.6341 52.724 45.6193 47.5872 49.3047C46.0944 50.3757 44.638 51.4996 43.22 52.6677C42.1532 53.5466 42.782 55.3897 44.0209 55.701C47.4573 56.5648 50.6949 55.3865 53.9346 54.3345C57.181 53.2803 60.4211 52.2068 63.6547 51.1137C70.1479 48.9188 76.6145 46.6453 83.0521 44.2923C86.6454 42.979 90.2293 41.6406 93.8042 40.2781C94.6884 39.941 95.3935 39.0401 95.0717 38.0456C94.7925 37.183 93.789 36.4161 92.8393 36.7781V36.7782Z" fill="#E23929"/></svg>