<?xml version="1.0" encoding="UTF-8"?>
<svg id="logos" xmlns="http://www.w3.org/2000/svg" viewBox="0 0 1048.82 425.2"><defs><style>.cls-1{fill:#fff;stroke-width:0px;}</style></defs><g><path class="cls-1" d="m910.3,142.12c-5.21-6.54-13.13-9.8-23.75-9.8s-18.53,3.27-23.74,9.8c-5.22,6.53-7.83,14.25-7.83,23.16s2.61,16.81,7.83,23.26c5.21,6.43,13.13,9.65,23.74,9.65s18.54-3.22,23.75-9.65c5.22-6.45,7.82-14.19,7.82-23.26s-2.6-16.63-7.82-23.16Zm-12.92,37.48c-2.53,3.35-6.15,5.04-10.89,5.04s-8.36-1.69-10.91-5.04c-2.55-3.35-3.82-8.13-3.82-14.32s1.27-10.95,3.82-14.29c2.55-3.34,6.19-5.01,10.91-5.01s8.35,1.67,10.89,5.01c2.53,3.34,3.8,8.11,3.8,14.29s-1.27,10.97-3.8,14.32Z"/></g><path class="cls-1" d="m274.35,113.21c-79.31,0-143.6,42.18-143.6,93.92,0,1.34-.02,5.03-.02,5.5,0,54.9,56.19,99.35,143.6,99.35s143.61-44.45,143.61-99.34v-5.51c0-51.74-64.29-93.92-143.59-93.92Z"/></svg>